<svg xmlns="http://www.w3.org/2000/svg" width="600" height="600" viewBox="0 0 600 600">
  <path fill="#FFF" fill-rule="evenodd" d="M300,0 C465.685425,0 600,134.314575 600,300 C600,465.685425 465.685425,600 300,600 C134.314575,600 0,465.685425 0,300 C0,134.314575 134.314575,0 300,0 Z M60,300 C60,422.387907 151.609721,523.379218 269.998194,538.142962 L269.998194,61.8570379 C151.609721,76.6207824 60,177.612093 60,300 Z M330.002805,61.8571625 L330.002805,538.142838 C448.390794,523.378649 540,422.387563 540,300 C540,177.612437 448.390794,76.6213506 330.002805,61.8571625 Z"/>
</svg>
