<?xml version="1.0" standalone="no"?>
<!DOCTYPE svg PUBLIC "-//W3C//DTD SVG 20010904//EN"
 "http://www.w3.org/TR/2001/REC-SVG-20010904/DTD/svg10.dtd">
<svg version="1.0" xmlns="http://www.w3.org/2000/svg"
 width="435.000000pt" height="435.000000pt" viewBox="0 0 435.000000 435.000000"
 preserveAspectRatio="xMidYMid meet">
<metadata>
Created by potrace 1.14, written by Peter Selinger 2001-2017
</metadata>
<g transform="translate(0.000000,435.000000) scale(0.100000,-0.100000)"
fill="#000000" stroke="none">
<path d="M2019 3926 c-2 -2 -35 -7 -72 -11 -164 -16 -398 -89 -568 -176 -442
-227 -758 -611 -893 -1086 -14 -48 -28 -106 -31 -128 -4 -22 -8 -47 -10 -55
-19 -73 -27 -385 -13 -501 59 -467 301 -889 678 -1180 214 -165 509 -294 760
-334 173 -27 462 -28 586 -1 12 2 37 7 55 10 176 29 426 129 604 243 355 228
640 614 740 1003 9 36 21 81 26 100 23 86 37 253 34 410 -2 91 -6 176 -9 190
-3 13 -8 40 -11 60 -25 168 -89 354 -181 530 -246 466 -678 786 -1208 897 -96
20 -158 26 -302 29 -100 2 -183 2 -185 0z m-109 -1746 l0 -1311 -37 7 c-115
21 -321 108 -434 184 -331 221 -533 543 -596 947 -14 94 -7 360 11 414 3 8 7
31 10 51 9 62 55 187 110 298 64 131 69 140 78 140 5 0 8 5 8 11 0 28 156 203
255 286 125 104 304 203 445 246 30 9 69 20 85 26 17 5 38 10 48 10 16 1 17
-68 17 -1309z m665 1274 c395 -124 715 -435 855 -829 57 -164 75 -267 75 -445
-1 -165 -11 -233 -55 -383 -108 -363 -370 -667 -710 -826 -96 -44 -214 -85
-277 -96 l-43 -7 0 1312 0 1312 38 -6 c20 -4 73 -18 117 -32z"/>
</g>
</svg>
